<?xml version="1.0" encoding="utf-8"?>
<!-- Generator: Adobe Illustrator 16.0.0, SVG Export Plug-In . SVG Version: 6.00 Build 0)  -->
<!DOCTYPE svg PUBLIC "-//W3C//DTD SVG 1.1//EN" "http://www.w3.org/Graphics/SVG/1.1/DTD/svg11.dtd">
<svg version="1.1" xmlns="http://www.w3.org/2000/svg" xmlns:xlink="http://www.w3.org/1999/xlink" x="0px" y="0px"
	 width="515.333px" height="127.333px" viewBox="0 0 515.333 127.333" enable-background="new 0 0 515.333 127.333"
	 xml:space="preserve">
<g id="logo">
</g>
<g id="图层_2">
	<g>
		<g>
			<path fill-rule="evenodd" clip-rule="evenodd" fill="#FFFFFF" d="M126.063,66h-11.426c-1.019,23.605-19.969,42.557-43.574,43.576
				V121c0,0.276-0.224,0.5-0.5,0.5h-3c-0.276,0-0.5-0.224-0.5-0.5v-11.424C43.458,108.557,24.508,89.605,23.489,66H12.063
				c-0.276,0-0.5-0.224-0.5-0.5v-3c0-0.276,0.224-0.5,0.5-0.5h11.424c1.02-23.605,19.971-42.555,43.576-43.574V7
				c0-0.276,0.224-0.5,0.5-0.5h3c0.276,0,0.5,0.224,0.5,0.5v11.426C94.669,19.445,113.62,38.395,114.64,62h11.424
				c0.276,0,0.5,0.224,0.5,0.5v3C126.563,65.776,126.34,66,126.063,66z M95.376,62h7.373c-0.997-17.045-14.64-30.689-31.686-31.686
				v7.373c0,0.276-0.224,0.5-0.5,0.5h-3c-0.276,0-0.5-0.224-0.5-0.5v-7.373C50.018,31.311,36.375,44.955,35.378,62h7.373
				c0.276,0,0.5,0.224,0.5,0.5v3c0,0.276-0.224,0.5-0.5,0.5h-7.373c0.996,17.046,14.641,30.688,31.686,31.686v-7.373
				c0-0.275,0.224-0.5,0.5-0.5h3c0.276,0,0.5,0.225,0.5,0.5v7.373C88.108,96.688,101.753,83.045,102.75,66h-7.374
				c-0.276,0-0.5-0.224-0.5-0.5v-3C94.876,62.224,95.1,62,95.376,62z M69.063,73.938c-5.488,0-9.938-4.449-9.938-9.938
				s4.449-9.938,9.938-9.938s9.938,4.449,9.938,9.938S74.552,73.938,69.063,73.938z"/>
		</g>
		<g>
			<path fill="#FFFFFF" d="M142.737,74.535V36.07h10.77v40.927c0,13.54,5.848,20.31,17.541,20.31
				c12.102,0.202,17.947-6.563,17.539-20.31V36.07h10.77v38.157c0.818,20.517-8.721,30.358-28.617,29.541
				C151.661,104.178,142.323,94.437,142.737,74.535z"/>
			<path fill="#FFFFFF" d="M206.435,72.688v-7.077h42.158v7.077H206.435z"/>
			<path fill="#FFFFFF" d="M287.056,103.769c-20.516-1.23-31.387-12.511-32.617-33.849c1.023-22.156,12-33.744,32.926-34.773
				c20.102,1.231,30.873,12.824,32.311,34.773C318.646,91.46,307.774,102.74,287.056,103.769z M287.056,97.307
				c13.949-0.615,21.127-9.741,21.541-27.387c-0.615-17.642-7.693-26.873-21.232-27.695c-13.746,1.23-21.031,10.463-21.848,27.695
				C266.132,87.151,273.31,96.282,287.056,97.307z"/>
			<path fill="#FFFFFF" d="M329.522,121.924V54.226h20.617c17.025,0,25.434,8.309,25.232,24.926
				c0,16.415-8.309,24.617-24.926,24.617h-10.463v18.155H329.522z M339.983,97.307h8.002c10.871,0,16.309-6.049,16.309-18.155
				c0-11.896-5.438-17.849-16.309-17.849h-8.002V97.307z"/>
			<path fill="#FFFFFF" d="M384.296,102.23V32.07h10.77v70.16H384.296z"/>
			<path fill="#FFFFFF" d="M404.606,85.613V55.457h10.461V84.69c-0.207,8.414,3.895,12.516,12.309,12.309h10.156V55.457h10.77
				v48.004h-24.926C410.452,103.663,404.192,97.715,404.606,85.613z"/>
			<path fill="#FFFFFF" d="M455.687,94.537v-8.309c6.355,7.386,13.539,11.078,21.539,11.078c7.387,0,10.973-2.255,10.771-6.77
				c0.408-4.102-3.184-6.771-10.771-8.001c-13.539-2.255-20.309-7.279-20.309-15.078c0.816-8.409,7.178-12.819,19.078-13.232
				c11.486,0.207,18.357,4.923,20.617,14.155h-9.848c-0.82-4.717-4.207-7.078-10.154-7.078c-6.154,0-9.23,2.053-9.23,6.155
				c-0.414,4.105,3.691,6.669,12.309,7.692c12.309,2.054,18.664,7.078,19.078,15.079c0.201,9.024-6.875,13.539-21.232,13.539
				C468.917,103.769,461.634,100.691,455.687,94.537z"/>
		</g>
	</g>
</g>
</svg>
